<svg width="24" height="24" viewBox="0 0 24 24" fill="none" xmlns="http://www.w3.org/2000/svg">
<path fill-rule="evenodd" clip-rule="evenodd" d="M21.0936 8.23756C21.3268 8.8056 21.8796 9.1772 22.4939 9.17899C23.3277 9.18571 24 9.8632 24 10.6966V13.3157C24 14.1538 23.3202 14.8332 22.4816 14.8332C21.8673 14.835 21.3146 15.2066 21.0814 15.7747C20.8481 16.3427 20.9804 16.9953 21.4163 17.4278C22.0012 18.0269 22.0012 18.9828 21.4163 19.5818L19.5796 21.4176C18.9803 22.0022 18.0238 22.0022 17.4245 21.4176C17.148 21.1249 16.7619 20.9608 16.3592 20.9648C15.9544 20.9615 15.565 21.12 15.2776 21.405C14.9902 21.6899 14.8286 22.0778 14.8286 22.4824C14.8286 23.3206 14.1488 24 13.3102 24H10.6898C9.85122 24 9.17143 23.3206 9.17143 22.4824C9.17144 22.0778 9.00979 21.6899 8.72239 21.405C8.43499 21.12 8.04563 20.9615 7.64082 20.9648C7.23809 20.9608 6.85195 21.1249 6.57551 21.4176C5.97618 22.0022 5.01974 22.0022 4.42041 21.4176L2.58367 19.5818C1.99882 18.9828 1.99882 18.0269 2.58367 17.4278C3.01965 16.9953 3.15187 16.3427 2.91864 15.7747C2.68541 15.2066 2.13269 14.835 1.51837 14.8332C1.11567 14.8332 0.729469 14.6734 0.444719 14.3888C0.15997 14.1042 0 13.7181 0 13.3157V10.6966C0 9.85844 0.679796 9.17899 1.51837 9.17899C2.13269 9.1772 2.68541 8.8056 2.91864 8.23756C3.15187 7.66952 3.01965 7.01698 2.58367 6.5844C1.99882 5.98537 1.99882 5.02942 2.58367 4.43039L4.42041 2.59459C5.01974 2.01004 5.97618 2.01004 6.57551 2.59459C6.85195 2.88734 7.23809 3.05147 7.64082 3.04742C8.04776 3.05072 8.439 2.8906 8.72676 2.60298C9.01452 2.31537 9.17472 1.92433 9.17143 1.51759C9.17143 0.67945 9.85122 0 10.6898 0H13.3224C14.161 0 14.8408 0.67945 14.8408 1.51759C14.8375 1.92433 14.9977 2.31537 15.2855 2.60298C15.5732 2.8906 15.9645 3.05072 16.3714 3.04742C16.7742 3.05147 17.1603 2.88734 17.4367 2.59459C18.0361 2.01004 18.9925 2.01004 19.5918 2.59459L21.4286 4.43039C22.0134 5.02942 22.0134 5.98537 21.4286 6.5844C20.9926 7.01698 20.8604 7.66952 21.0936 8.23756ZM19.3469 15.0658C19.8249 13.9009 20.9195 13.1053 22.1755 13.0097L22.1388 11.0025C20.8964 10.8937 19.819 10.1002 19.3469 8.94646C18.8845 7.79 19.0963 6.47304 19.898 5.51963L18.4898 4.11219C17.8926 4.61203 17.1381 4.88509 16.3592 4.88322C14.6239 4.87897 13.1738 3.56188 13.0041 1.8358H10.9959C10.8316 3.56463 9.37831 4.88469 7.64082 4.88322C6.86191 4.88509 6.10736 4.61203 5.5102 4.11219L4.13878 5.51963C4.92799 6.48032 5.12554 7.79661 4.65306 8.94646C4.18099 10.1002 3.10358 10.8937 1.86122 11.0025V13.0097C3.10358 13.1186 4.18099 13.912 4.65306 15.0658C5.11548 16.2222 4.90371 17.5392 4.10204 18.4926L5.5102 19.9C6.10736 19.4002 6.86191 19.1272 7.64082 19.129C9.3761 19.1333 10.8262 20.4504 10.9959 22.1764H13.0041C13.1572 20.442 14.6172 19.1159 16.3592 19.129C17.1381 19.1272 17.8926 19.4002 18.4898 19.9L19.8612 18.4926C19.072 17.5319 18.8745 16.2156 19.3469 15.0658Z" fill="black"/>
<path fill-rule="evenodd" clip-rule="evenodd" d="M7.76327 12.0061C7.76327 9.66743 9.66012 7.77155 12 7.77155C13.1237 7.77155 14.2013 8.21769 14.9958 9.01182C15.7904 9.80596 16.2367 10.883 16.2367 12.0061C16.2367 14.3448 14.3399 16.2407 12 16.2407C9.66012 16.2407 7.76327 14.3448 7.76327 12.0061ZM9.55102 12.0061C9.55102 13.358 10.6475 14.4538 12 14.4538C13.3525 14.4538 14.449 13.358 14.449 12.0061C14.449 10.6543 13.3525 9.55839 12 9.55839C10.6475 9.55839 9.55102 10.6543 9.55102 12.0061Z" fill="black"/>
</svg>
